<svg id="Capa_1" enable-background="new 0 0 512 512" height="512" viewBox="0 0 512 512" width="512" xmlns="http://www.w3.org/2000/svg" xmlns:xlink="http://www.w3.org/1999/xlink"><linearGradient id="SVGID_1_" gradientUnits="userSpaceOnUse" x1="256" x2="256" y1="512" y2="0"><stop offset="0" stop-color="#addcff"/><stop offset=".5028" stop-color="#eaf6ff"/><stop offset="1" stop-color="#eaf6ff"/></linearGradient><linearGradient id="SVGID_2_" gradientUnits="userSpaceOnUse" x1="256" x2="256" y1="407" y2="105"><stop offset="0" stop-color="#00c0ff"/><stop offset="1" stop-color="#5558ff"/></linearGradient><g><g><circle cx="256" cy="256" fill="url(#SVGID_1_)" r="256"/></g><g><g><path d="m300.142 105c-58.925 0-106.858 47.933-106.858 106.858 0 26.264 9.566 50.308 25.341 68.934l-12.112 12.112-6.307-6.302c-3.479-3.479-9.114-3.479-12.592 0l-80.005 80.013c-3.479 3.479-3.479 9.114 0 12.592l25.184 25.184c1.739 1.739 4.018 2.609 6.296 2.609s4.557-.87 6.296-2.609l80.022-80.013c1.67-1.67 2.609-3.931 2.609-6.296s-.939-4.626-2.609-6.296l-6.298-6.294 12.107-12.107c18.625 15.771 42.666 25.332 68.926 25.332 58.925 0 106.858-47.933 106.858-106.858 0-58.926-47.933-106.859-106.858-106.859zm0 178.097c-39.289 0-71.239-31.958-71.239-71.239s31.95-71.239 71.239-71.239 71.239 31.958 71.239 71.239-31.95 71.239-71.239 71.239z" fill="url(#SVGID_2_)"/></g></g></g></svg>